<?xml version="1.0" encoding="iso-8859-1"?>
<!-- Generator: Adobe Illustrator 19.0.0, SVG Export Plug-In . SVG Version: 6.00 Build 0)  -->
<svg version="1.1" id="Capa_1" xmlns="http://www.w3.org/2000/svg" xmlns:xlink="http://www.w3.org/1999/xlink" x="0px" y="0px"
	 viewBox="0 0 512 512" style="enable-background:new 0 0 512 512;" xml:space="preserve">
<g>
	<path style="fill:#E6E7E8;" d="M136.533,503.467h238.933c18.85,0,34.133-15.283,34.133-34.133v-17.067H102.4v17.067
		C102.4,488.184,117.683,503.467,136.533,503.467z"/>
	<path style="fill:#E6E7E8;" d="M409.6,42.667c0-18.85-15.283-34.133-34.133-34.133H136.533c-18.85,0-34.133,15.283-34.133,34.133
		v17.067h307.2V42.667z"/>
</g>
<rect x="102.4" y="59.733" style="fill:#006DF0;" width="307.2" height="392.533"/>
<g>
	<path style="fill:#231F20;" d="M375.467,0H136.533c-23.552,0.026-42.641,19.115-42.667,42.667v426.667
		c0.026,23.552,19.115,42.641,42.667,42.667h238.933c23.552-0.026,42.641-19.115,42.667-42.667V42.667
		C418.108,19.115,399.019,0.026,375.467,0z M136.533,17.067h238.933c14.14,0,25.6,11.46,25.6,25.6V51.2H110.933v-8.533
		C110.933,28.527,122.394,17.067,136.533,17.067z M401.067,443.733H110.933V68.267h290.133V443.733z M375.467,494.933H136.533
		c-14.14,0-25.6-11.46-25.6-25.6V460.8h290.133v8.533C401.067,483.473,389.606,494.933,375.467,494.933z"/>
	<path style="fill:#231F20;" d="M221.867,42.667h17.067c4.71,0,8.533-3.823,8.533-8.533s-3.823-8.533-8.533-8.533h-17.067
		c-4.71,0-8.533,3.823-8.533,8.533S217.156,42.667,221.867,42.667z"/>
	<path style="fill:#231F20;" d="M264.533,42.667h34.133c4.71,0,8.533-3.823,8.533-8.533s-3.823-8.533-8.533-8.533h-34.133
		c-4.71,0-8.533,3.823-8.533,8.533S259.823,42.667,264.533,42.667z"/>
	<path style="fill:#231F20;" d="M281.6,469.333h-51.2c-4.71,0-8.533,3.823-8.533,8.533s3.823,8.533,8.533,8.533h51.2
		c4.71,0,8.533-3.823,8.533-8.533S286.31,469.333,281.6,469.333z"/>
</g>
<g>
</g>
<g>
</g>
<g>
</g>
<g>
</g>
<g>
</g>
<g>
</g>
<g>
</g>
<g>
</g>
<g>
</g>
<g>
</g>
<g>
</g>
<g>
</g>
<g>
</g>
<g>
</g>
<g>
</g>
</svg>
